HIERARCHY
ROOT root
{
  OFFSET 0 95.9893 0
  CHANNELS 6 Xposition Yposition Zposition Zrotation Xrotation Yrotation
  JOINT torso_1
  {
    OFFSET 0 5.22546 -1.18466
    CHANNELS 6 Xposition Yposition Zposition Zrotation Xrotation Yrotation
    JOINT torso_2
    {
      OFFSET 0 5.77894 1.10239
      CHANNELS 6 Xposition Yposition Zposition Zrotation Xrotation Yrotation
      JOINT torso_3
      {
        OFFSET -1.0557e-17 6.16289 0.118334
        CHANNELS 6 Xposition Yposition Zposition Zrotation Xrotation Yrotation
        JOINT torso_4
        {
          OFFSET -1.13649e-17 6.69386 -0.456341
          CHANNELS 6 Xposition Yposition Zposition Zrotation Xrotation Yrotation
          JOINT torso_5
          {
            OFFSET -2.02997e-17 7.82529 -1.54945
            CHANNELS 6 Xposition Yposition Zposition Zrotation Xrotation Yrotation
            JOINT torso_6
            {
              OFFSET -2.60628e-17 9.77186 -0.940923
              CHANNELS 6 Xposition Yposition Zposition Zrotation Xrotation Yrotation
              JOINT torso_7
              {
                OFFSET -2.98794e-17 10.8563 1.62248
                CHANNELS 6 Xposition Yposition Zposition Zrotation Xrotation Yrotation
                JOINT neck_1
                {
                  OFFSET -1.32927e-17 4.92478 0.736013
                  CHANNELS 6 Xposition Yposition Zposition Zrotation Xrotation Yrotation
                  JOINT neck_2
                  {
                    OFFSET -1.86396e-17 4.96043 0.433981
                    CHANNELS 6 Xposition Yposition Zposition Zrotation Xrotation Yrotation
                    JOINT head
                    {
                      OFFSET -2.06766e-17 4.97002 0.787173
                      CHANNELS 6 Xposition Yposition Zposition Zrotation Xrotation Yrotation
                      End Site
                      {
                        OFFSET 0 0.1 0
                      }
                    }
                  }
                }
                JOINT l_shoulder
                {
                  OFFSET 1.26863 -7.82717 7.75148
                  CHANNELS 6 Xposition Yposition Zposition Zrotation Xrotation Yrotation
                  JOINT l_up_arm
                  {
                    OFFSET 13.3291 3.34342 -3.36319
                    CHANNELS 6 Xposition Yposition Zposition Zrotation Xrotation Yrotation
                    JOINT l_low_arm
                    {
                      OFFSET 30.0522 0.0615366 0.141
                      CHANNELS 6 Xposition Yposition Zposition Zrotation Xrotation Yrotation
                      JOINT l_hand
                      {
                        OFFSET 24.9344 0.0510561 0.116988
                        CHANNELS 6 Xposition Yposition Zposition Zrotation Xrotation Yrotation
                        End Site
                        {
                          OFFSET 0.1 0 0
                        }
                      }
                    }
                  }
                }
                JOINT r_shoulder
                {
                  OFFSET -1.26863 -7.82715 7.75138
                  CHANNELS 6 Xposition Yposition Zposition Zrotation Xrotation Yrotation
                  JOINT r_up_arm
                  {
                    OFFSET -13.3291 3.34342 -3.36319
                    CHANNELS 6 Xposition Yposition Zposition Zrotation Xrotation Yrotation
                    JOINT r_low_arm
                    {
                      OFFSET -30.0522 0.0615366 0.141
                      CHANNELS 6 Xposition Yposition Zposition Zrotation Xrotation Yrotation
                      JOINT r_hand
                      {
                        OFFSET -24.9344 0.0510559 0.116988
                        CHANNELS 6 Xposition Yposition Zposition Zrotation Xrotation Yrotation
                        End Site
                        {
                          OFFSET -0.1 0 0
                        }
                      }
                    }
                  }
                }
              }
            }
          }
        }
      }
    }
  }
  JOINT l_up_leg
  {
    OFFSET 9.50369 -4.32711 2.09145
    CHANNELS 6 Xposition Yposition Zposition Zrotation Xrotation Yrotation
    JOINT l_low_leg
    {
      OFFSET -0.876987 -39.8926 -0.674123
      CHANNELS 6 Xposition Yposition Zposition Zrotation Xrotation Yrotation
      JOINT l_foot
      {
        OFFSET -2.39345 -41.5694 -6.22357
        CHANNELS 6 Xposition Yposition Zposition Zrotation Xrotation Yrotation
        JOINT l_toes
        {
          OFFSET 0.801613 -10.1701 12.8571
          CHANNELS 6 Xposition Yposition Zposition Zrotation Xrotation Yrotation
          End Site
          {
            OFFSET 0 0 0.1
          }
        }
      }
    }
  }
  JOINT r_up_leg
  {
    OFFSET -9.50369 -4.32711 2.09145
    CHANNELS 6 Xposition Yposition Zposition Zrotation Xrotation Yrotation
    JOINT r_low_leg
    {
      OFFSET 0.876987 -39.8926 -0.674123
      CHANNELS 6 Xposition Yposition Zposition Zrotation Xrotation Yrotation
      JOINT r_foot
      {
        OFFSET 2.39345 -41.5694 -6.22357
        CHANNELS 6 Xposition Yposition Zposition Zrotation Xrotation Yrotation
        JOINT r_toes
        {
          OFFSET -0.801613 -10.1701 12.8571
          CHANNELS 6 Xposition Yposition Zposition Zrotation Xrotation Yrotation
          End Site
          {
            OFFSET 0 0 0.1
          }
        }
      }
    }
  }
}
MOTION
Frames: 8
Frame Time: 0.016667
0 95.9893 0 -0 0 -0 0 5.22546 -1.18466 -0 0 -0 0 5.77894 1.10239 -0 0 -0 -1.0557e-17 6.16289 0.118334 -0 0 -0 -1.13649e-17 6.69386 -0.456341 -0 0 -0 -2.02997e-17 7.82529 -1.54945 -0 0 -0 -2.60628e-17 9.77186 -0.940923 -0 0 -0 -2.98794e-17 10.8563 1.62248 -0 0 -0 -1.32927e-17 4.92478 0.736013 -0 0 -0 -1.86396e-17 4.96043 0.433981 -0 0 -0 -2.06766e-17 4.97002 0.787173 -0 0 -0 1.26863 -7.82717 7.75148 -0 0 -0 13.3291 3.34342 -3.36319 -0 0 -0 30.0522 0.0615366 0.141 -0 0 -0 24.9344 0.0510561 0.116988 -0 0 -0 -1.26863 -7.82715 7.75138 -0 0 -0 -13.3291 3.34342 -3.36319 -0 0 -0 -30.0522 0.0615366 0.141 -0 0 -0 -24.9344 0.0510559 0.116988 -0 0 -0 9.50369 -4.32711 2.09145 -0 0 -0 -0.876987 -39.8926 -0.674123 -0 0 -0 -2.39345 -41.5694 -6.22357 -0 0 -0 0.801613 -10.1701 12.8571 -0 0 -0 -9.50369 -4.32711 2.09145 -0 0 -0 0.876987 -39.8926 -0.674123 -0 0 -0 2.39345 -41.5694 -6.22357 -0 0 -0 -0.801613 -10.1701 12.8571 -0 0 -0 
4.44953 95.5436 -115.912 0.077804 3.53782 1.71405 0 5.22546 -1.18466 -0.45098 -0.356237 0.149213 0 5.77894 1.10239 -0.218676 -0.000280105 0.0455612 -1.0557e-17 6.16289 0.118334 -0.0792525 0.512275 0.165947 -1.13649e-17 6.69386 -0.456341 0.0518195 1.05354 0.201032 -2.02997e-17 7.82529 -1.54945 0.246941 1.03525 0.150485 -2.60628e-17 9.77186 -0.940923 0.501432 0.868674 -0.193221 -2.98794e-17 10.8563 1.62248 -0.00452067 0.846479 0.036199 -1.32927e-17 4.92478 0.736013 0.603375 -3.68757 0.0966424 -1.86396e-17 4.96043 0.433981 0.816998 -2.08615 -0.0772014 -2.06766e-17 4.97002 0.787173 -0.225466 1.16458 2.35989 1.26863 -7.82717 7.75148 -1.31339 3.91356 -1.73204 13.3291 3.34342 -3.36319 -82.4133 20.672 -4.09086 30.0522 0.0615366 0.141 1.78939 -0.126144 -8.65467 24.9344 0.0510561 0.116988 0.723162 -13.2621 -4.05833 -1.26863 -7.82715 7.75138 3.84786 5.14432 1.87624 -13.3291 3.34342 -3.36319 77.253 19.3232 5.44239 -30.0522 0.0615366 0.141 -1.76334 -0.122195 8.5266 -24.9344 0.0510559 0.116988 1.33275 -12.5649 4.37675 9.50369 -4.32711 2.09145 2.90339 -4.21328 -15.3174 -0.876987 -39.8926 -0.674123 -0.751371 2.8062 -0.0305847 -2.39345 -41.5694 -6.22357 -2.47105 -4.13064 15.6454 0.801613 -10.1701 12.8571 -2.81683e-16 -6.85054e-16 -1.73293e-16 -9.50369 -4.32711 2.09145 -3.44659 -6.80681 16.5909 0.876987 -39.8926 -0.674123 0.648629 2.42243 0.0285737 2.39345 -41.5694 -6.22357 0.769302 -2.19181 -15.3234 -0.801613 -10.1701 12.8571 -6.00124e-16 -3.85884e-16 -1.25795e-14 
4.44642 95.5393 -115.906 0.0787433 3.69168 1.73552 0 5.22546 -1.18466 -0.452259 -0.395893 0.143452 0 5.77894 1.10239 -0.219319 -0.028759 0.0403459 -1.0557e-17 6.16289 0.118334 -0.0788993 0.494251 0.161064 -1.13649e-17 6.69386 -0.456341 0.0534493 1.05507 0.196289 -2.02997e-17 7.82529 -1.54945 0.248553 1.04905 0.145559 -2.60628e-17 9.77186 -0.940923 0.502038 0.88779 -0.198943 -2.98794e-17 10.8563 1.62248 -0.00409705 0.843152 0.036293 -1.32927e-17 4.92478 0.736013 0.609527 -3.69801 0.130524 -1.86396e-17 4.96043 0.433981 0.821866 -2.05821 -0.0615106 -2.06766e-17 4.97002 0.787173 -0.240218 1.18101 2.35974 1.26863 -7.82717 7.75148 -1.29902 3.89644 -1.70803 13.3291 3.34342 -3.36319 -82.4431 20.7081 -4.0959 30.0522 0.0615366 0.141 1.79975 -0.12767 -8.70512 24.9344 0.0510561 0.116988 0.733205 -13.2592 -4.0662 -1.26863 -7.82715 7.75138 3.85422 5.13699 1.87103 -13.3291 3.34342 -3.36319 77.2338 19.3753 5.46964 -30.0522 0.0615366 0.141 -1.76982 -0.123135 8.55816 -24.9344 0.0510559 0.116988 1.31653 -12.5459 4.36341 9.50369 -4.32711 2.09145 2.90646 -4.38109 -15.2179 -0.876987 -39.8926 -0.674123 -0.759827 2.83778 -0.0307196 -2.39345 -41.5694 -6.22357 -2.48471 -4.17244 15.646 0.801613 -10.1701 12.8571 5.13048e-16 -6.50718e-16 -2.10546e-16 -9.50369 -4.32711 2.09145 -3.462 -6.95705 16.5999 0.876987 -39.8926 -0.674123 0.651592 2.4335 0.0286413 2.39345 -41.5694 -6.22357 0.785207 -2.24452 -15.3282 -0.801613 -10.1701 12.8571 -6.00124e-16 -3.85884e-16 -1.25795e-14 
4.43964 95.5371 -115.899 0.0788973 3.81781 1.75538 0 5.22546 -1.18466 -0.457455 -0.428595 0.139727 0 5.77894 1.10239 -0.223593 -0.0535877 0.0364589 -1.0557e-17 6.16289 0.118334 -0.0817459 0.47632 0.15746 -1.13649e-17 6.69386 -0.456341 0.0521863 1.05026 0.192746 -2.02997e-17 7.82529 -1.54945 0.247953 1.05364 0.142301 -2.60628e-17 9.77186 -0.940923 0.501586 0.895661 -0.202475 -2.98794e-17 10.8563 1.62248 -0.00386008 0.841312 0.0366038 -1.32927e-17 4.92478 0.736013 0.611641 -3.7479 0.149489 -1.86396e-17 4.96043 0.433981 0.824487 -2.01931 -0.0528392 -2.06766e-17 4.97002 0.787173 -0.219172 1.263 2.35188 1.26863 -7.82717 7.75148 -1.31337 3.8924 -1.69601 13.3291 3.34342 -3.36319 -82.4418 20.695 -4.09512 30.0522 0.0615366 0.141 1.80664 -0.12869 -8.73867 24.9344 0.0510561 0.116988 0.760764 -13.1928 -4.04673 -1.26863 -7.82715 7.75138 3.86908 5.14042 1.87116 -13.3291 3.34342 -3.36319 77.2256 19.39 5.47704 -30.0522 0.0615366 0.141 -1.77647 -0.124103 8.59055 -24.9344 0.0510559 0.116988 1.31109 -12.5148 4.34522 9.50369 -4.32711 2.09145 2.90947 -4.53074 -15.1419 -0.876987 -39.8926 -0.674123 -0.771657 2.88197 -0.0309005 -2.39345 -41.5694 -6.22357 -2.47856 -4.19742 15.6468 0.801613 -10.1701 12.8571 1.1609e-16 -6.67868e-16 -1.98148e-16 -9.50369 -4.32711 2.09145 -3.47615 -7.08596 16.601 0.876987 -39.8926 -0.674123 0.656321 2.45116 0.0287481 2.39345 -41.5694 -6.22357 0.803683 -2.2856 -15.3288 -0.801613 -10.1701 12.8571 -6.00124e-16 -3.85884e-16 -1.25795e-14 
4.42889 95.5369 -115.894 0.0768524 3.86058 1.77043 0 5.22546 -1.18466 -0.462342 -0.436613 0.137613 0 5.77894 1.10239 -0.22729 -0.059401 0.0337105 -1.0557e-17 6.16289 0.118334 -0.084063 0.471971 0.154837 -1.13649e-17 6.69386 -0.456341 0.0512204 1.04929 0.190134 -2.02997e-17 7.82529 -1.54945 0.247759 1.05535 0.139868 -2.60628e-17 9.77186 -0.940923 0.501839 0.898424 -0.205409 -2.98794e-17 10.8563 1.62248 -0.00389961 0.840613 0.0370132 -1.32927e-17 4.92478 0.736013 0.614753 -3.78822 0.16603 -1.86396e-17 4.96043 0.433981 0.833409 -1.98401 -0.0451876 -2.06766e-17 4.97002 0.787173 -0.196005 1.35554 2.33498 1.26863 -7.82717 7.75148 -1.34058 3.89758 -1.69302 13.3291 3.34342 -3.36319 -82.4293 20.6503 -4.09044 30.0522 0.0615366 0.141 1.80829 -0.128936 -8.74673 24.9344 0.0510561 0.116988 0.783962 -13.1139 -3.99785 -1.26863 -7.82715 7.75138 3.8912 5.14727 1.87413 -13.3291 3.34342 -3.36319 77.2116 19.3769 5.4788 -30.0522 0.0615366 0.141 -1.7807 -0.124719 8.61113 -24.9344 0.0510559 0.116988 1.3182 -12.4812 4.33852 9.50369 -4.32711 2.09145 2.91689 -4.61147 -15.1064 -0.876987 -39.8926 -0.674123 -0.789921 2.95018 -0.0311618 -2.39345 -41.5694 -6.22357 -2.44895 -4.20551 15.648 0.801613 -10.1701 12.8571 -6.78845e-16 -7.02213e-16 -1.60888e-16 -9.50369 -4.32711 2.09145 -3.47616 -7.15359 16.598 0.876987 -39.8926 -0.674123 0.670572 2.5044 0.0290611 2.39345 -41.5694 -6.22357 0.791395 -2.30279 -15.3263 -0.801613 -10.1701 12.8571 -2.02758e-16 -4.03052e-16 -1.25919e-14 
4.41697 95.5348 -115.888 0.0723974 3.88716 1.79979 0 5.22546 -1.18466 -0.464659 -0.441017 0.133441 0 5.77894 1.10239 -0.228547 -0.0612442 0.0291474 -1.0557e-17 6.16289 0.118334 -0.0845093 0.473032 0.150152 -1.13649e-17 6.69386 -0.456341 0.0517388 1.05634 0.185314 -2.02997e-17 7.82529 -1.54945 0.24802 1.06526 0.134929 -2.60628e-17 9.77186 -0.940923 0.501231 0.910031 -0.210627 -2.98794e-17 10.8563 1.62248 -0.00406639 0.83905 0.0366792 -1.32927e-17 4.92478 0.736013 0.616984 -3.75691 0.173619 -1.86396e-17 4.96043 0.433981 0.842075 -1.96802 -0.0415255 -2.06766e-17 4.97002 0.787173 -0.190493 1.38466 2.32713 1.26863 -7.82717 7.75148 -1.34353 3.88955 -1.68099 13.3291 3.34342 -3.36319 -82.4313 20.6232 -4.09588 30.0522 0.0615366 0.141 1.80443 -0.128363 -8.72793 24.9344 0.0510561 0.116988 0.796967 -13.0377 -3.96952 -1.26863 -7.82715 7.75138 3.88222 5.13563 1.86594 -13.3291 3.34342 -3.36319 77.2213 19.3779 5.48896 -30.0522 0.0615366 0.141 -1.78048 -0.124688 8.61007 -24.9344 0.0510559 0.116988 1.32894 -12.4773 4.35462 9.50369 -4.32711 2.09145 2.92834 -4.65915 -15.0991 -0.876987 -39.8926 -0.674123 -0.800319 2.98901 -0.0313008 -2.39345 -41.5694 -6.22357 -2.4266 -4.21693 15.6488 0.801613 -10.1701 12.8571 1.15479e-16 -6.67895e-16 -1.98122e-16 -9.50369 -4.32711 2.09145 -3.47445 -7.20572 16.5644 0.876987 -39.8926 -0.674123 0.687798 2.56875 0.0294218 2.39345 -41.5694 -6.22357 0.787454 -2.33243 -15.3257 -0.801613 -10.1701 12.8571 -5.9992e-16 -3.85893e-16 -1.25795e-14 
4.4008 95.5343 -115.875 0.0705166 3.91434 1.81528 0 5.22546 -1.18466 -0.467322 -0.453986 0.131011 0 5.77894 1.10239 -0.230396 -0.0678626 0.0262684 -1.0557e-17 6.16289 0.118334 -0.0857297 0.474469 0.146972 -1.13649e-17 6.69386 -0.456341 0.0512064 1.07152 0.181982 -2.02997e-17 7.82529 -1.54945 0.247431 1.08738 0.131652 -2.60628e-17 9.77186 -0.940923 0.500261 0.937876 -0.213994 -2.98794e-17 10.8563 1.62248 -0.00442242 0.835616 0.0357847 -1.32927e-17 4.92478 0.736013 0.617708 -3.71352 0.176689 -1.86396e-17 4.96043 0.433981 0.84587 -1.95997 -0.0401155 -2.06766e-17 4.97002 0.787173 -0.195602 1.39134 2.31573 1.26863 -7.82717 7.75148 -1.34855 3.87476 -1.67204 13.3291 3.34342 -3.36319 -82.4334 20.5841 -4.1071 30.0522 0.0615366 0.141 1.79842 -0.127474 -8.69867 24.9344 0.0510561 0.116988 0.820099 -12.9325 -3.95767 -1.26863 -7.82715 7.75138 3.87402 5.11545 1.85443 -13.3291 3.34342 -3.36319 77.2381 19.4119 5.51381 -30.0522 0.0615366 0.141 -1.77874 -0.124434 8.6016 -24.9344 0.0510559 0.116988 1.32452 -12.4768 4.37018 9.50369 -4.32711 2.09145 2.93946 -4.70774 -15.0978 -0.876987 -39.8926 -0.674123 -0.813526 3.03834 -0.0314673 -2.39345 -41.5694 -6.22357 -2.39377 -4.22025 15.6497 0.801613 -10.1701 12.8571 1.15886e-16 -6.67877e-16 -1.98141e-16 -9.50369 -4.32711 2.09145 -3.4708 -7.24415 16.5567 0.876987 -39.8926 -0.674123 0.699216 2.6114 0.0296502 2.39345 -41.5694 -6.22357 0.784649 -2.35555 -15.3255 -0.801613 -10.1701 12.8571 -6.00124e-16 -3.85884e-16 -1.25795e-14 
4.38139 95.5338 -115.855 0.0555501 3.9697 1.83082 0 5.22546 -1.18466 -0.466127 -0.478013 0.126975 0 5.77894 1.10239 -0.228959 -0.0823657 0.0223296 -1.0557e-17 6.16289 0.118334 -0.0844196 0.471188 0.142813 -1.13649e-17 6.69386 -0.456341 0.0525567 1.08734 0.177728 -2.02997e-17 7.82529 -1.54945 0.247708 1.11369 0.12729 -2.60628e-17 9.77186 -0.940923 0.498967 0.972368 -0.218265 -2.98794e-17 10.8563 1.62248 -0.00489366 0.831328 0.0347949 -1.32927e-17 4.92478 0.736013 0.618184 -3.6966 0.180609 -1.86396e-17 4.96043 0.433981 0.849701 -1.95104 -0.0382711 -2.06766e-17 4.97002 0.787173 -0.193901 1.40004 2.31704 1.26863 -7.82717 7.75148 -1.36736 3.85687 -1.66504 13.3291 3.34342 -3.36319 -82.4216 20.5049 -4.12335 30.0522 0.0615366 0.141 1.79298 -0.126671 -8.67214 24.9344 0.0510561 0.116988 0.84661 -12.7954 -3.93998 -1.26863 -7.82715 7.75138 3.87752 5.09239 1.84335 -13.3291 3.34342 -3.36319 77.2506 19.4356 5.53439 -30.0522 0.0615366 0.141 -1.78116 -0.124787 8.61338 -24.9344 0.0510559 0.116988 1.31879 -12.4291 4.39648 9.50369 -4.32711 2.09145 2.96663 -4.77032 -15.0802 -0.876987 -39.8926 -0.674123 -0.82257 3.07211 -0.0315747 -2.39345 -41.5694 -6.22357 -2.36857 -4.23545 15.651 0.801613 -10.1701 12.8571 1.15886e-16 -6.67877e-16 -1.98141e-16 -9.50369 -4.32711 2.09145 -3.45463 -7.28261 16.5573 0.876987 -39.8926 -0.674123 0.698536 2.60885 0.0296368 2.39345 -41.5694 -6.22357 0.798002 -2.37337 -15.3271 -0.801613 -10.1701 12.8571 -6.00124e-16 -3.85884e-16 -1.25795e-14 
